<mxfile host="Electron" agent="Mozilla/5.0 (Windows NT 10.0; Win64; x64) AppleWebKit/537.36 (KHTML, like Gecko) draw.io/24.7.17 Chrome/128.0.6613.36 Electron/32.0.1 Safari/537.36" version="24.7.17" pages="2">
  <diagram name="Page-1" id="2Nq3ry9tZN_k2MQu1Wby">
    <mxGraphModel dx="1481" dy="887" grid="1" gridSize="10" guides="1" tooltips="1" connect="1" arrows="1" fold="1" page="1" pageScale="1" pageWidth="850" pageHeight="1100" math="0" shadow="0">
      <root>
        <mxCell id="0" />
        <mxCell id="1" parent="0" />
        <mxCell id="icSz4FfZfomal5iBsmhP-10" value="Airport" style="swimlane;fontStyle=0;childLayout=stackLayout;horizontal=1;startSize=30;horizontalStack=0;resizeParent=1;resizeParentMax=0;resizeLast=0;collapsible=1;marginBottom=0;whiteSpace=wrap;html=1;rounded=1;" parent="1" vertex="1">
          <mxGeometry x="180" y="490" width="120" height="210" as="geometry" />
        </mxCell>
        <mxCell id="icSz4FfZfomal5iBsmhP-11" value="name&lt;span style=&quot;white-space: pre;&quot;&gt;&#x9;&lt;/span&gt;" style="text;strokeColor=none;fillColor=none;align=left;verticalAlign=middle;spacingLeft=4;spacingRight=4;overflow=hidden;points=[[0,0.5],[1,0.5]];portConstraint=eastwest;rotatable=0;whiteSpace=wrap;html=1;" parent="icSz4FfZfomal5iBsmhP-10" vertex="1">
          <mxGeometry y="30" width="120" height="30" as="geometry" />
        </mxCell>
        <mxCell id="icSz4FfZfomal5iBsmhP-12" value="Longitude" style="text;strokeColor=none;fillColor=none;align=left;verticalAlign=middle;spacingLeft=4;spacingRight=4;overflow=hidden;points=[[0,0.5],[1,0.5]];portConstraint=eastwest;rotatable=0;whiteSpace=wrap;html=1;" parent="icSz4FfZfomal5iBsmhP-10" vertex="1">
          <mxGeometry y="60" width="120" height="30" as="geometry" />
        </mxCell>
        <mxCell id="icSz4FfZfomal5iBsmhP-14" value="Latitude&lt;div&gt;&lt;br&gt;&lt;/div&gt;" style="text;strokeColor=none;fillColor=none;align=left;verticalAlign=middle;spacingLeft=4;spacingRight=4;overflow=hidden;points=[[0,0.5],[1,0.5]];portConstraint=eastwest;rotatable=0;whiteSpace=wrap;html=1;" parent="icSz4FfZfomal5iBsmhP-10" vertex="1">
          <mxGeometry y="90" width="120" height="20" as="geometry" />
        </mxCell>
        <mxCell id="icSz4FfZfomal5iBsmhP-23" value="Established (year)" style="text;strokeColor=none;fillColor=none;align=left;verticalAlign=middle;spacingLeft=4;spacingRight=4;overflow=hidden;points=[[0,0.5],[1,0.5]];portConstraint=eastwest;rotatable=0;whiteSpace=wrap;html=1;" parent="icSz4FfZfomal5iBsmhP-10" vertex="1">
          <mxGeometry y="110" width="120" height="20" as="geometry" />
        </mxCell>
        <mxCell id="icSz4FfZfomal5iBsmhP-67" value="Facilities" style="text;strokeColor=none;fillColor=none;align=left;verticalAlign=middle;spacingLeft=4;spacingRight=4;overflow=hidden;points=[[0,0.5],[1,0.5]];portConstraint=eastwest;rotatable=0;whiteSpace=wrap;html=1;" parent="icSz4FfZfomal5iBsmhP-10" vertex="1">
          <mxGeometry y="130" width="120" height="40" as="geometry" />
        </mxCell>
        <mxCell id="UyjAXhbRGgFqxlXH32iC-30" value="Type (army / civil)" style="text;strokeColor=none;fillColor=none;align=left;verticalAlign=middle;spacingLeft=4;spacingRight=4;overflow=hidden;points=[[0,0.5],[1,0.5]];portConstraint=eastwest;rotatable=0;whiteSpace=wrap;html=1;" parent="icSz4FfZfomal5iBsmhP-10" vertex="1">
          <mxGeometry y="170" width="120" height="40" as="geometry" />
        </mxCell>
        <mxCell id="icSz4FfZfomal5iBsmhP-25" value="Aviation Company" style="swimlane;fontStyle=0;childLayout=stackLayout;horizontal=1;startSize=30;horizontalStack=0;resizeParent=1;resizeParentMax=0;resizeLast=0;collapsible=1;marginBottom=0;whiteSpace=wrap;html=1;rounded=1;arcSize=44;glass=0;" parent="1" vertex="1">
          <mxGeometry x="675" y="420" width="140" height="120" as="geometry" />
        </mxCell>
        <mxCell id="icSz4FfZfomal5iBsmhP-27" value="Years Operational" style="text;strokeColor=none;fillColor=none;align=left;verticalAlign=middle;spacingLeft=4;spacingRight=4;overflow=hidden;points=[[0,0.5],[1,0.5]];portConstraint=eastwest;rotatable=0;whiteSpace=wrap;html=1;" parent="icSz4FfZfomal5iBsmhP-25" vertex="1">
          <mxGeometry y="30" width="140" height="30" as="geometry" />
        </mxCell>
        <mxCell id="icSz4FfZfomal5iBsmhP-64" value="Based in" style="text;strokeColor=none;fillColor=none;align=left;verticalAlign=middle;spacingLeft=4;spacingRight=4;overflow=hidden;points=[[0,0.5],[1,0.5]];portConstraint=eastwest;rotatable=0;whiteSpace=wrap;html=1;" parent="icSz4FfZfomal5iBsmhP-25" vertex="1">
          <mxGeometry y="60" width="140" height="30" as="geometry" />
        </mxCell>
        <mxCell id="icSz4FfZfomal5iBsmhP-63" style="text;strokeColor=none;fillColor=none;align=left;verticalAlign=middle;spacingLeft=4;spacingRight=4;overflow=hidden;points=[[0,0.5],[1,0.5]];portConstraint=eastwest;rotatable=0;whiteSpace=wrap;html=1;" parent="icSz4FfZfomal5iBsmhP-25" vertex="1">
          <mxGeometry y="90" width="140" height="30" as="geometry" />
        </mxCell>
        <mxCell id="icSz4FfZfomal5iBsmhP-30" value="Flight" style="swimlane;fontStyle=0;childLayout=stackLayout;horizontal=1;startSize=30;horizontalStack=0;resizeParent=1;resizeParentMax=0;resizeLast=0;collapsible=1;marginBottom=0;whiteSpace=wrap;html=1;rounded=1;arcSize=40;sketch=1;curveFitting=1;jiggle=2;" parent="1" vertex="1">
          <mxGeometry x="660" y="830" width="190" height="180" as="geometry" />
        </mxCell>
        <mxCell id="icSz4FfZfomal5iBsmhP-31" value="Starting point&lt;span style=&quot;white-space: pre;&quot;&gt;&#x9;&lt;/span&gt;" style="text;strokeColor=none;fillColor=none;align=left;verticalAlign=middle;spacingLeft=4;spacingRight=4;overflow=hidden;points=[[0,0.5],[1,0.5]];portConstraint=eastwest;rotatable=0;whiteSpace=wrap;html=1;" parent="icSz4FfZfomal5iBsmhP-30" vertex="1">
          <mxGeometry y="30" width="190" height="30" as="geometry" />
        </mxCell>
        <mxCell id="icSz4FfZfomal5iBsmhP-48" value="Start date / time" style="text;strokeColor=none;fillColor=none;align=left;verticalAlign=middle;spacingLeft=4;spacingRight=4;overflow=hidden;points=[[0,0.5],[1,0.5]];portConstraint=eastwest;rotatable=0;whiteSpace=wrap;html=1;" parent="icSz4FfZfomal5iBsmhP-30" vertex="1">
          <mxGeometry y="60" width="190" height="30" as="geometry" />
        </mxCell>
        <mxCell id="UyjAXhbRGgFqxlXH32iC-14" style="text;strokeColor=none;fillColor=none;align=left;verticalAlign=middle;spacingLeft=4;spacingRight=4;overflow=hidden;points=[[0,0.5],[1,0.5]];portConstraint=eastwest;rotatable=0;whiteSpace=wrap;html=1;" parent="icSz4FfZfomal5iBsmhP-30" vertex="1">
          <mxGeometry y="90" width="190" height="30" as="geometry" />
        </mxCell>
        <mxCell id="icSz4FfZfomal5iBsmhP-32" value="Ending point" style="text;strokeColor=none;fillColor=none;align=left;verticalAlign=middle;spacingLeft=4;spacingRight=4;overflow=hidden;points=[[0,0.5],[1,0.5]];portConstraint=eastwest;rotatable=0;whiteSpace=wrap;html=1;" parent="icSz4FfZfomal5iBsmhP-30" vertex="1">
          <mxGeometry y="120" width="190" height="30" as="geometry" />
        </mxCell>
        <mxCell id="UyjAXhbRGgFqxlXH32iC-15" style="text;strokeColor=none;fillColor=none;align=left;verticalAlign=middle;spacingLeft=4;spacingRight=4;overflow=hidden;points=[[0,0.5],[1,0.5]];portConstraint=eastwest;rotatable=0;whiteSpace=wrap;html=1;" parent="icSz4FfZfomal5iBsmhP-30" vertex="1">
          <mxGeometry y="150" width="190" height="30" as="geometry" />
        </mxCell>
        <mxCell id="icSz4FfZfomal5iBsmhP-54" value="" style="endArrow=classic;html=1;rounded=0;entryX=1.015;entryY=0.089;entryDx=0;entryDy=0;entryPerimeter=0;" parent="1" source="icSz4FfZfomal5iBsmhP-25" edge="1">
          <mxGeometry relative="1" as="geometry">
            <mxPoint x="674.9993617835091" y="523.9800000000002" as="sourcePoint" />
            <mxPoint x="765.1700000000003" y="830.0000000000002" as="targetPoint" />
          </mxGeometry>
        </mxCell>
        <mxCell id="icSz4FfZfomal5iBsmhP-50" value="" style="endArrow=classic;html=1;rounded=0;exitX=-0.012;exitY=0.102;exitDx=0;exitDy=0;exitPerimeter=0;movable=1;resizable=1;rotatable=1;deletable=1;editable=1;locked=0;connectable=1;" parent="1" source="_eiWpOKpuOmr78seg4ps-34" edge="1">
          <mxGeometry relative="1" as="geometry">
            <mxPoint x="660" y="949.9999999999998" as="sourcePoint" />
            <mxPoint x="302.21" y="648.791500993322" as="targetPoint" />
          </mxGeometry>
        </mxCell>
        <mxCell id="icSz4FfZfomal5iBsmhP-49" value="End date / time" style="text;strokeColor=none;fillColor=none;align=left;verticalAlign=middle;spacingLeft=4;spacingRight=4;overflow=hidden;points=[[0,0.5],[1,0.5]];portConstraint=eastwest;rotatable=0;whiteSpace=wrap;html=1;" parent="1" vertex="1">
          <mxGeometry x="660" y="920" width="170" height="30" as="geometry" />
        </mxCell>
        <mxCell id="CjrnG77TnSBxmtqLkK-a-20" value="Railway" style="swimlane;fontStyle=0;childLayout=stackLayout;horizontal=1;startSize=30;horizontalStack=0;resizeParent=1;resizeParentMax=0;resizeLast=0;collapsible=1;marginBottom=0;whiteSpace=wrap;html=1;" parent="1" vertex="1">
          <mxGeometry x="-60" y="330" width="140" height="120" as="geometry" />
        </mxCell>
        <mxCell id="CjrnG77TnSBxmtqLkK-a-21" value="Starting point (Coordinates)" style="text;strokeColor=none;fillColor=none;align=left;verticalAlign=middle;spacingLeft=4;spacingRight=4;overflow=hidden;points=[[0,0.5],[1,0.5]];portConstraint=eastwest;rotatable=0;whiteSpace=wrap;html=1;" parent="CjrnG77TnSBxmtqLkK-a-20" vertex="1">
          <mxGeometry y="30" width="140" height="30" as="geometry" />
        </mxCell>
        <mxCell id="uPudiCGfUK6ss3KHqm3K-1" style="text;strokeColor=none;fillColor=none;align=left;verticalAlign=middle;spacingLeft=4;spacingRight=4;overflow=hidden;points=[[0,0.5],[1,0.5]];portConstraint=eastwest;rotatable=0;whiteSpace=wrap;html=1;" parent="CjrnG77TnSBxmtqLkK-a-20" vertex="1">
          <mxGeometry y="60" width="140" height="30" as="geometry" />
        </mxCell>
        <mxCell id="UyjAXhbRGgFqxlXH32iC-12" value="Year Inaugurated" style="text;strokeColor=none;fillColor=none;align=left;verticalAlign=middle;spacingLeft=4;spacingRight=4;overflow=hidden;points=[[0,0.5],[1,0.5]];portConstraint=eastwest;rotatable=0;whiteSpace=wrap;html=1;" parent="CjrnG77TnSBxmtqLkK-a-20" vertex="1">
          <mxGeometry y="90" width="140" height="30" as="geometry" />
        </mxCell>
        <mxCell id="CjrnG77TnSBxmtqLkK-a-24" value="Sea Port" style="swimlane;fontStyle=0;childLayout=stackLayout;horizontal=1;startSize=30;horizontalStack=0;resizeParent=1;resizeParentMax=0;resizeLast=0;collapsible=1;marginBottom=0;whiteSpace=wrap;html=1;" parent="1" vertex="1">
          <mxGeometry x="-70" y="570" width="140" height="150" as="geometry" />
        </mxCell>
        <mxCell id="CjrnG77TnSBxmtqLkK-a-25" value="longitude&lt;span style=&quot;white-space: pre;&quot;&gt;&#x9;&lt;/span&gt;" style="text;strokeColor=none;fillColor=none;align=left;verticalAlign=middle;spacingLeft=4;spacingRight=4;overflow=hidden;points=[[0,0.5],[1,0.5]];portConstraint=eastwest;rotatable=0;whiteSpace=wrap;html=1;" parent="CjrnG77TnSBxmtqLkK-a-24" vertex="1">
          <mxGeometry y="30" width="140" height="30" as="geometry" />
        </mxCell>
        <mxCell id="CjrnG77TnSBxmtqLkK-a-26" value="latitude" style="text;strokeColor=none;fillColor=none;align=left;verticalAlign=middle;spacingLeft=4;spacingRight=4;overflow=hidden;points=[[0,0.5],[1,0.5]];portConstraint=eastwest;rotatable=0;whiteSpace=wrap;html=1;" parent="CjrnG77TnSBxmtqLkK-a-24" vertex="1">
          <mxGeometry y="60" width="140" height="30" as="geometry" />
        </mxCell>
        <mxCell id="CjrnG77TnSBxmtqLkK-a-27" value="type" style="text;strokeColor=none;fillColor=none;align=left;verticalAlign=middle;spacingLeft=4;spacingRight=4;overflow=hidden;points=[[0,0.5],[1,0.5]];portConstraint=eastwest;rotatable=0;whiteSpace=wrap;html=1;" parent="CjrnG77TnSBxmtqLkK-a-24" vertex="1">
          <mxGeometry y="90" width="140" height="30" as="geometry" />
        </mxCell>
        <mxCell id="UyjAXhbRGgFqxlXH32iC-10" value="Year Inaugurated" style="text;strokeColor=none;fillColor=none;align=left;verticalAlign=middle;spacingLeft=4;spacingRight=4;overflow=hidden;points=[[0,0.5],[1,0.5]];portConstraint=eastwest;rotatable=0;whiteSpace=wrap;html=1;" parent="CjrnG77TnSBxmtqLkK-a-24" vertex="1">
          <mxGeometry y="120" width="140" height="30" as="geometry" />
        </mxCell>
        <mxCell id="CjrnG77TnSBxmtqLkK-a-28" value="Road" style="swimlane;fontStyle=0;childLayout=stackLayout;horizontal=1;startSize=30;horizontalStack=0;resizeParent=1;resizeParentMax=0;resizeLast=0;collapsible=1;marginBottom=0;whiteSpace=wrap;html=1;" parent="1" vertex="1">
          <mxGeometry x="-10" y="800" width="140" height="150" as="geometry" />
        </mxCell>
        <mxCell id="CjrnG77TnSBxmtqLkK-a-29" value="Starting Point (coordinates)" style="text;strokeColor=none;fillColor=none;align=left;verticalAlign=middle;spacingLeft=4;spacingRight=4;overflow=hidden;points=[[0,0.5],[1,0.5]];portConstraint=eastwest;rotatable=0;whiteSpace=wrap;html=1;" parent="CjrnG77TnSBxmtqLkK-a-28" vertex="1">
          <mxGeometry y="30" width="140" height="30" as="geometry" />
        </mxCell>
        <mxCell id="CjrnG77TnSBxmtqLkK-a-30" value="Ending point (coordinates)" style="text;strokeColor=none;fillColor=none;align=left;verticalAlign=middle;spacingLeft=4;spacingRight=4;overflow=hidden;points=[[0,0.5],[1,0.5]];portConstraint=eastwest;rotatable=0;whiteSpace=wrap;html=1;" parent="CjrnG77TnSBxmtqLkK-a-28" vertex="1">
          <mxGeometry y="60" width="140" height="30" as="geometry" />
        </mxCell>
        <mxCell id="CjrnG77TnSBxmtqLkK-a-31" value="type" style="text;strokeColor=none;fillColor=none;align=left;verticalAlign=middle;spacingLeft=4;spacingRight=4;overflow=hidden;points=[[0,0.5],[1,0.5]];portConstraint=eastwest;rotatable=0;whiteSpace=wrap;html=1;" parent="CjrnG77TnSBxmtqLkK-a-28" vertex="1">
          <mxGeometry y="90" width="140" height="30" as="geometry" />
        </mxCell>
        <mxCell id="UyjAXhbRGgFqxlXH32iC-9" value="Year inaugurated" style="text;strokeColor=none;fillColor=none;align=left;verticalAlign=middle;spacingLeft=4;spacingRight=4;overflow=hidden;points=[[0,0.5],[1,0.5]];portConstraint=eastwest;rotatable=0;whiteSpace=wrap;html=1;" parent="CjrnG77TnSBxmtqLkK-a-28" vertex="1">
          <mxGeometry y="120" width="140" height="30" as="geometry" />
        </mxCell>
        <mxCell id="CjrnG77TnSBxmtqLkK-a-40" value="" style="endArrow=classic;html=1;rounded=0;entryX=1;entryY=0;entryDx=0;entryDy=0;exitX=0.25;exitY=0;exitDx=0;exitDy=0;" parent="1" source="icSz4FfZfomal5iBsmhP-10" target="CjrnG77TnSBxmtqLkK-a-20" edge="1">
          <mxGeometry relative="1" as="geometry">
            <mxPoint x="160" y="480" as="sourcePoint" />
            <mxPoint x="260" y="480" as="targetPoint" />
          </mxGeometry>
        </mxCell>
        <mxCell id="CjrnG77TnSBxmtqLkK-a-41" value="is connected to" style="edgeLabel;resizable=0;html=1;;align=center;verticalAlign=middle;" parent="CjrnG77TnSBxmtqLkK-a-40" connectable="0" vertex="1">
          <mxGeometry relative="1" as="geometry" />
        </mxCell>
        <mxCell id="CjrnG77TnSBxmtqLkK-a-44" value="" style="endArrow=classic;html=1;rounded=0;entryX=1;entryY=0;entryDx=0;entryDy=0;exitX=0;exitY=0.5;exitDx=0;exitDy=0;" parent="1" source="icSz4FfZfomal5iBsmhP-23" target="CjrnG77TnSBxmtqLkK-a-24" edge="1">
          <mxGeometry relative="1" as="geometry">
            <mxPoint x="200" y="610" as="sourcePoint" />
            <mxPoint x="70" y="450" as="targetPoint" />
          </mxGeometry>
        </mxCell>
        <mxCell id="CjrnG77TnSBxmtqLkK-a-45" value="is connected to" style="edgeLabel;resizable=0;html=1;;align=center;verticalAlign=middle;" parent="CjrnG77TnSBxmtqLkK-a-44" connectable="0" vertex="1">
          <mxGeometry relative="1" as="geometry" />
        </mxCell>
        <mxCell id="CjrnG77TnSBxmtqLkK-a-42" value="" style="endArrow=classic;html=1;rounded=0;entryX=0.75;entryY=0;entryDx=0;entryDy=0;exitX=0.026;exitY=1.004;exitDx=0;exitDy=0;exitPerimeter=0;" parent="1" source="icSz4FfZfomal5iBsmhP-67" target="CjrnG77TnSBxmtqLkK-a-28" edge="1">
          <mxGeometry relative="1" as="geometry">
            <mxPoint x="230" y="720" as="sourcePoint" />
            <mxPoint x="100" y="560" as="targetPoint" />
          </mxGeometry>
        </mxCell>
        <mxCell id="CjrnG77TnSBxmtqLkK-a-43" value="is connected to" style="edgeLabel;resizable=0;html=1;;align=center;verticalAlign=middle;" parent="CjrnG77TnSBxmtqLkK-a-42" connectable="0" vertex="1">
          <mxGeometry relative="1" as="geometry" />
        </mxCell>
        <mxCell id="CjrnG77TnSBxmtqLkK-a-22" value="ending point (Coordinates)" style="text;strokeColor=none;fillColor=none;align=left;verticalAlign=middle;spacingLeft=4;spacingRight=4;overflow=hidden;points=[[0,0.5],[1,0.5]];portConstraint=eastwest;rotatable=0;whiteSpace=wrap;html=1;" parent="1" vertex="1">
          <mxGeometry x="-60" y="390" width="140" height="30" as="geometry" />
        </mxCell>
        <mxCell id="UyjAXhbRGgFqxlXH32iC-13" value="operates" style="text;html=1;align=center;verticalAlign=middle;resizable=0;points=[];autosize=1;strokeColor=none;fillColor=none;" parent="1" vertex="1">
          <mxGeometry x="720" y="660" width="70" height="30" as="geometry" />
        </mxCell>
        <mxCell id="UyjAXhbRGgFqxlXH32iC-16" value="departs from&amp;nbsp;&lt;div&gt;&lt;br&gt;&lt;/div&gt;&lt;div&gt;arrives at&lt;/div&gt;" style="text;html=1;align=center;verticalAlign=middle;resizable=0;points=[];autosize=1;strokeColor=none;fillColor=none;" parent="1" vertex="1">
          <mxGeometry x="370" y="740" width="90" height="60" as="geometry" />
        </mxCell>
        <mxCell id="UyjAXhbRGgFqxlXH32iC-17" value="Appelation" style="swimlane;fontStyle=0;childLayout=stackLayout;horizontal=1;startSize=26;fillColor=none;horizontalStack=0;resizeParent=1;resizeParentMax=0;resizeLast=0;collapsible=1;marginBottom=0;html=1;" parent="1" vertex="1">
          <mxGeometry x="850" y="320" width="140" height="52" as="geometry" />
        </mxCell>
        <mxCell id="UyjAXhbRGgFqxlXH32iC-22" value="" style="endArrow=classic;html=1;rounded=0;entryX=0;entryY=0;entryDx=0;entryDy=0;exitX=1;exitY=0;exitDx=0;exitDy=0;" parent="1" source="icSz4FfZfomal5iBsmhP-25" target="UyjAXhbRGgFqxlXH32iC-17" edge="1">
          <mxGeometry relative="1" as="geometry">
            <mxPoint x="943" y="404" as="sourcePoint" />
            <mxPoint x="850" y="800" as="targetPoint" />
          </mxGeometry>
        </mxCell>
        <mxCell id="UyjAXhbRGgFqxlXH32iC-25" value="has" style="text;html=1;align=center;verticalAlign=middle;resizable=0;points=[];autosize=1;strokeColor=none;fillColor=none;" parent="1" vertex="1">
          <mxGeometry x="790" y="360" width="40" height="30" as="geometry" />
        </mxCell>
        <mxCell id="_eiWpOKpuOmr78seg4ps-1" value="" style="endArrow=classic;html=1;rounded=0;exitX=1;exitY=0;exitDx=0;exitDy=0;" parent="1" edge="1">
          <mxGeometry relative="1" as="geometry">
            <mxPoint x="920" y="529.9999999999998" as="sourcePoint" />
            <mxPoint x="980" y="540" as="targetPoint" />
          </mxGeometry>
        </mxCell>
        <mxCell id="_eiWpOKpuOmr78seg4ps-3" value="" style="endArrow=classic;html=1;rounded=0;exitX=1;exitY=0;exitDx=0;exitDy=0;" parent="1" target="_eiWpOKpuOmr78seg4ps-2" edge="1">
          <mxGeometry relative="1" as="geometry">
            <mxPoint x="815" y="510" as="sourcePoint" />
            <mxPoint x="920" y="490" as="targetPoint" />
          </mxGeometry>
        </mxCell>
        <mxCell id="_eiWpOKpuOmr78seg4ps-2" value="owns" style="text;html=1;align=center;verticalAlign=middle;resizable=0;points=[];autosize=1;strokeColor=none;fillColor=none;" parent="1" vertex="1">
          <mxGeometry x="875" y="510" width="50" height="30" as="geometry" />
        </mxCell>
        <mxCell id="_eiWpOKpuOmr78seg4ps-4" value="Asset" style="swimlane;fontStyle=0;childLayout=stackLayout;horizontal=1;startSize=30;horizontalStack=0;resizeParent=1;resizeParentMax=0;resizeLast=0;collapsible=1;marginBottom=0;whiteSpace=wrap;html=1;" parent="1" vertex="1">
          <mxGeometry x="980" y="510" width="140" height="120" as="geometry" />
        </mxCell>
        <mxCell id="_eiWpOKpuOmr78seg4ps-5" value="type" style="text;strokeColor=none;fillColor=none;align=left;verticalAlign=middle;spacingLeft=4;spacingRight=4;overflow=hidden;points=[[0,0.5],[1,0.5]];portConstraint=eastwest;rotatable=0;whiteSpace=wrap;html=1;" parent="_eiWpOKpuOmr78seg4ps-4" vertex="1">
          <mxGeometry y="30" width="140" height="30" as="geometry" />
        </mxCell>
        <mxCell id="_eiWpOKpuOmr78seg4ps-6" value="location" style="text;strokeColor=none;fillColor=none;align=left;verticalAlign=middle;spacingLeft=4;spacingRight=4;overflow=hidden;points=[[0,0.5],[1,0.5]];portConstraint=eastwest;rotatable=0;whiteSpace=wrap;html=1;" parent="_eiWpOKpuOmr78seg4ps-4" vertex="1">
          <mxGeometry y="60" width="140" height="30" as="geometry" />
        </mxCell>
        <mxCell id="_eiWpOKpuOmr78seg4ps-7" value="producer" style="text;strokeColor=none;fillColor=none;align=left;verticalAlign=middle;spacingLeft=4;spacingRight=4;overflow=hidden;points=[[0,0.5],[1,0.5]];portConstraint=eastwest;rotatable=0;whiteSpace=wrap;html=1;" parent="_eiWpOKpuOmr78seg4ps-4" vertex="1">
          <mxGeometry y="90" width="140" height="30" as="geometry" />
        </mxCell>
        <mxCell id="_eiWpOKpuOmr78seg4ps-11" value="n" style="text;html=1;align=center;verticalAlign=middle;resizable=0;points=[];autosize=1;strokeColor=none;fillColor=none;" parent="1" vertex="1">
          <mxGeometry x="950" y="540" width="30" height="30" as="geometry" />
        </mxCell>
        <mxCell id="_eiWpOKpuOmr78seg4ps-12" value="n" style="text;html=1;align=center;verticalAlign=middle;resizable=0;points=[];autosize=1;strokeColor=none;fillColor=none;" parent="1" vertex="1">
          <mxGeometry x="750" y="538" width="30" height="30" as="geometry" />
        </mxCell>
        <mxCell id="_eiWpOKpuOmr78seg4ps-13" value="n" style="text;html=1;align=center;verticalAlign=middle;resizable=0;points=[];autosize=1;strokeColor=none;fillColor=none;" parent="1" vertex="1">
          <mxGeometry x="150" y="648" width="30" height="30" as="geometry" />
        </mxCell>
        <mxCell id="_eiWpOKpuOmr78seg4ps-14" value="n" style="text;html=1;align=center;verticalAlign=middle;resizable=0;points=[];autosize=1;strokeColor=none;fillColor=none;" parent="1" vertex="1">
          <mxGeometry x="70" y="768" width="30" height="30" as="geometry" />
        </mxCell>
        <mxCell id="_eiWpOKpuOmr78seg4ps-15" value="1" style="text;html=1;align=center;verticalAlign=middle;resizable=0;points=[];autosize=1;strokeColor=none;fillColor=none;" parent="1" vertex="1">
          <mxGeometry x="765" y="798" width="30" height="30" as="geometry" />
        </mxCell>
        <mxCell id="_eiWpOKpuOmr78seg4ps-25" value="n" style="text;html=1;align=center;verticalAlign=middle;resizable=0;points=[];autosize=1;strokeColor=none;fillColor=none;" parent="1" vertex="1">
          <mxGeometry x="780" y="390" width="30" height="30" as="geometry" />
        </mxCell>
        <mxCell id="_eiWpOKpuOmr78seg4ps-26" value="n" style="text;html=1;align=center;verticalAlign=middle;resizable=0;points=[];autosize=1;strokeColor=none;fillColor=none;" parent="1" vertex="1">
          <mxGeometry x="70" y="350" width="30" height="30" as="geometry" />
        </mxCell>
        <mxCell id="_eiWpOKpuOmr78seg4ps-27" value="n" style="text;html=1;align=center;verticalAlign=middle;resizable=0;points=[];autosize=1;strokeColor=none;fillColor=none;" parent="1" vertex="1">
          <mxGeometry x="170" y="465" width="30" height="30" as="geometry" />
        </mxCell>
        <mxCell id="_eiWpOKpuOmr78seg4ps-28" value="n" style="text;html=1;align=center;verticalAlign=middle;resizable=0;points=[];autosize=1;strokeColor=none;fillColor=none;" parent="1" vertex="1">
          <mxGeometry x="150" y="600" width="30" height="30" as="geometry" />
        </mxCell>
        <mxCell id="_eiWpOKpuOmr78seg4ps-29" value="n" style="text;html=1;align=center;verticalAlign=middle;resizable=0;points=[];autosize=1;strokeColor=none;fillColor=none;" parent="1" vertex="1">
          <mxGeometry x="70" y="580" width="30" height="30" as="geometry" />
        </mxCell>
        <mxCell id="_eiWpOKpuOmr78seg4ps-30" value="1" style="text;html=1;align=center;verticalAlign=middle;resizable=0;points=[];autosize=1;strokeColor=none;fillColor=none;" parent="1" vertex="1">
          <mxGeometry x="810" y="320" width="30" height="30" as="geometry" />
        </mxCell>
        <mxCell id="_eiWpOKpuOmr78seg4ps-32" value="1" style="text;html=1;align=center;verticalAlign=middle;resizable=0;points=[];autosize=1;strokeColor=none;fillColor=none;" parent="1" vertex="1">
          <mxGeometry x="810" y="508" width="30" height="30" as="geometry" />
        </mxCell>
        <mxCell id="_eiWpOKpuOmr78seg4ps-33" value="n" style="text;html=1;align=center;verticalAlign=middle;resizable=0;points=[];autosize=1;strokeColor=none;fillColor=none;" parent="1" vertex="1">
          <mxGeometry x="630" y="850" width="30" height="30" as="geometry" />
        </mxCell>
        <mxCell id="_eiWpOKpuOmr78seg4ps-35" value="" style="endArrow=classic;html=1;rounded=0;exitX=-0.012;exitY=0.102;exitDx=0;exitDy=0;exitPerimeter=0;movable=1;resizable=1;rotatable=1;deletable=1;editable=1;locked=0;connectable=1;" parent="1" source="_eiWpOKpuOmr78seg4ps-34" target="icSz4FfZfomal5iBsmhP-10" edge="1">
          <mxGeometry relative="1" as="geometry">
            <mxPoint x="658" y="848" as="sourcePoint" />
            <mxPoint x="302.21" y="648.791500993322" as="targetPoint" />
            <Array as="points" />
          </mxGeometry>
        </mxCell>
        <mxCell id="_eiWpOKpuOmr78seg4ps-36" value="" style="endArrow=classic;html=1;rounded=0;exitX=-0.012;exitY=0.102;exitDx=0;exitDy=0;exitPerimeter=0;movable=1;resizable=1;rotatable=1;deletable=1;editable=1;locked=0;connectable=1;" parent="1" source="icSz4FfZfomal5iBsmhP-30" target="icSz4FfZfomal5iBsmhP-10" edge="1">
          <mxGeometry relative="1" as="geometry">
            <mxPoint x="658" y="848" as="sourcePoint" />
            <mxPoint x="300" y="652" as="targetPoint" />
            <Array as="points">
              <mxPoint x="330" y="680" />
            </Array>
          </mxGeometry>
        </mxCell>
        <mxCell id="_eiWpOKpuOmr78seg4ps-34" value="n" style="text;html=1;align=center;verticalAlign=middle;resizable=0;points=[];autosize=1;strokeColor=none;fillColor=none;" parent="1" vertex="1">
          <mxGeometry x="300" y="690" width="30" height="30" as="geometry" />
        </mxCell>
        <mxCell id="_eiWpOKpuOmr78seg4ps-38" value="1" style="text;html=1;align=center;verticalAlign=middle;resizable=0;points=[];autosize=1;strokeColor=none;fillColor=none;" parent="1" vertex="1">
          <mxGeometry x="645" y="798" width="30" height="30" as="geometry" />
        </mxCell>
        <mxCell id="PxuBqAYTsV8qKqJNTexm-4" value="Cargo Item" style="swimlane;fontStyle=0;childLayout=stackLayout;horizontal=1;startSize=30;horizontalStack=0;resizeParent=1;resizeParentMax=0;resizeLast=0;collapsible=1;marginBottom=0;whiteSpace=wrap;html=1;" vertex="1" parent="1">
          <mxGeometry x="470" y="490" width="140" height="120" as="geometry" />
        </mxCell>
        <mxCell id="PxuBqAYTsV8qKqJNTexm-5" value="type" style="text;strokeColor=none;fillColor=none;align=left;verticalAlign=middle;spacingLeft=4;spacingRight=4;overflow=hidden;points=[[0,0.5],[1,0.5]];portConstraint=eastwest;rotatable=0;whiteSpace=wrap;html=1;" vertex="1" parent="PxuBqAYTsV8qKqJNTexm-4">
          <mxGeometry y="30" width="140" height="30" as="geometry" />
        </mxCell>
        <mxCell id="PxuBqAYTsV8qKqJNTexm-6" value="point of d" style="text;strokeColor=none;fillColor=none;align=left;verticalAlign=middle;spacingLeft=4;spacingRight=4;overflow=hidden;points=[[0,0.5],[1,0.5]];portConstraint=eastwest;rotatable=0;whiteSpace=wrap;html=1;" vertex="1" parent="PxuBqAYTsV8qKqJNTexm-4">
          <mxGeometry y="60" width="140" height="30" as="geometry" />
        </mxCell>
        <mxCell id="PxuBqAYTsV8qKqJNTexm-7" value="Point of a" style="text;strokeColor=none;fillColor=none;align=left;verticalAlign=middle;spacingLeft=4;spacingRight=4;overflow=hidden;points=[[0,0.5],[1,0.5]];portConstraint=eastwest;rotatable=0;whiteSpace=wrap;html=1;" vertex="1" parent="PxuBqAYTsV8qKqJNTexm-4">
          <mxGeometry y="90" width="140" height="30" as="geometry" />
        </mxCell>
        <mxCell id="PxuBqAYTsV8qKqJNTexm-9" value="" style="endArrow=classic;html=1;rounded=0;exitX=0.161;exitY=0.004;exitDx=0;exitDy=0;exitPerimeter=0;" edge="1" parent="1" source="icSz4FfZfomal5iBsmhP-30" target="PxuBqAYTsV8qKqJNTexm-4">
          <mxGeometry relative="1" as="geometry">
            <mxPoint x="566.41" y="625" as="sourcePoint" />
            <mxPoint x="583.5800000000003" y="915.0000000000002" as="targetPoint" />
          </mxGeometry>
        </mxCell>
        <mxCell id="PxuBqAYTsV8qKqJNTexm-10" value="n" style="text;html=1;align=center;verticalAlign=middle;resizable=0;points=[];autosize=1;strokeColor=none;fillColor=none;" vertex="1" parent="1">
          <mxGeometry x="530" y="610" width="30" height="30" as="geometry" />
        </mxCell>
      </root>
    </mxGraphModel>
  </diagram>
  <diagram id="ei1HQhf629E8Oh4_4O8b" name="Page-2">
    <mxGraphModel grid="1" page="1" gridSize="10" guides="1" tooltips="1" connect="1" arrows="1" fold="1" pageScale="1" pageWidth="850" pageHeight="1100" math="0" shadow="0">
      <root>
        <mxCell id="0" />
        <mxCell id="1" parent="0" />
      </root>
    </mxGraphModel>
  </diagram>
</mxfile>
